<svg width="428" height="132" viewBox="0 0 428 132" fill="black" xmlns="http://www.w3.org/2000/svg">
<path d="M146.087 0C148.849 0 151.087 2.23858 151.087 5V127C151.087 129.761 148.849 132 146.087 132H121.687C118.926 132 116.688 129.761 116.688 127V5C116.688 2.23858 118.926 0 121.687 0H146.087Z"/>
<path d="M190.159 0C205.626 0 217.626 3.66667 226.159 11C234.693 18.3333 238.959 28.2 238.959 40.6C238.959 49.5333 237.026 57.1333 233.159 63.4C229.426 69.5333 223.893 74.2 216.559 77.4V77.4C214.844 78.1307 214.096 80.2168 215.086 81.7966L241.76 124.344C243.847 127.674 241.454 132 237.524 132H211.48C209.675 132 208.011 131.028 207.125 129.456L182.809 86.3437C181.922 84.7721 180.258 83.8 178.454 83.8H167.159C164.398 83.8 162.159 81.5614 162.159 78.8V64.4C162.159 61.6386 164.398 59.4 167.159 59.4H185.359C191.093 59.4 195.693 58.2 199.159 55.8C202.626 53.4 204.359 49 204.359 42.6C204.359 36.0667 202.559 31.6667 198.959 29.4C195.359 27.1333 190.826 26 185.359 26H167.159C164.398 26 162.159 23.7614 162.159 21V5C162.159 2.23858 164.398 0 167.159 0H190.159Z" />
<path d="M103.137 90.7791L90.3491 128.601C89.6623 130.633 87.7567 132 85.6124 132H65.0838C62.8931 132 60.9575 130.574 60.3084 128.482L32.963 40.8332C32.4463 39.1771 29.9985 39.5738 30.0313 41.3083L30.6 71.4V127C30.6 129.761 28.3614 132 25.6 132H5C2.23858 132 0 129.761 0 127V5C0 2.23858 2.23858 0 5 0H45.2607C47.4778 0 49.4302 1.4601 50.0568 3.58685L68.8 67.2L74.7749 89.8404C75.1663 91.3236 77.2684 91.3324 77.6723 89.8525L83.8 67.4L101.44 6.74076C101.763 5.62991 103.4 5.86314 103.4 7.02V89.1776C103.4 89.7222 103.311 90.2632 103.137 90.7791Z" />
<path fill-rule="evenodd" clip-rule="evenodd" d="M362.393 30.8427C359.902 32.7131 356.476 32.7131 353.985 30.8427L314.788 1.40287C313.575 0.492304 312.1 0 310.584 0H261C255.477 0 251 4.47715 251 10V122C251 127.523 255.477 132 261 132H307.921C309.437 132 310.913 131.508 312.125 130.597L353.985 99.1573C356.476 97.2869 359.902 97.2869 362.393 99.1573L400.629 127.875C403.527 130.052 407.608 129.656 410.034 126.963L423.549 111.957C426.23 108.981 425.872 104.367 422.764 101.841L385.368 71.431C381.923 68.6297 381.923 63.3703 385.368 60.569L424.844 28.4681C427.951 25.9415 428.309 21.3281 425.629 18.3524L411.185 2.31533C409.858 0.84149 407.967 0 405.984 0H405.794C404.278 0 402.802 0.492304 401.59 1.40287L362.393 30.8427ZM331.747 60.5096C335.291 63.3122 335.291 68.6878 331.747 71.4904L295.281 100.331C290.692 103.961 283.939 100.692 283.939 94.8404L283.939 37.1596C283.939 31.3083 290.692 28.0395 295.281 31.6693L331.747 60.5096Z" />
</svg>
